<svg height="512" viewBox="0 0 512 512" width="512" xmlns="http://www.w3.org/2000/svg"><g><g fill="#57a4ff"><path d="m476 64h-12v24h-32v-24h-64v24h-32v-24h-64v24h-32v-24h-64v24h-32v-24h-64v24h-32v-24h-12a19.994 19.994 0 0 0 -20 20v28h480v-28a19.994 19.994 0 0 0 -20-20z"/><path d="m304.81 165.5a56 56 0 0 0 -97.62 0l-102.96 183.05a56 56 0 0 0 48.81 83.45h205.92a56 56 0 0 0 48.81-83.45zm54.15 234.5h-205.92a24 24 0 0 1 -20.92-35.77l102.96-183.04a24 24 0 0 1 41.84 0l102.96 183.04a24 24 0 0 1 -20.92 35.77z"/><path d="m240 232h32v88h-32z"/><path d="m240 344h32v32h-32z"/></g><g fill="#004fac"><path d="m476 56h-4v-16a8 8 0 0 0 -8-8h-32a8 8 0 0 0 -8 8v16h-48v-16a8 8 0 0 0 -8-8h-32a8 8 0 0 0 -8 8v16h-48v-16a8 8 0 0 0 -8-8h-32a8 8 0 0 0 -8 8v16h-48v-16a8 8 0 0 0 -8-8h-32a8 8 0 0 0 -8 8v16h-48v-16a8 8 0 0 0 -8-8h-32a8 8 0 0 0 -8 8v16h-4a28.031 28.031 0 0 0 -28 28v360a28.031 28.031 0 0 0 28 28h440a28.031 28.031 0 0 0 28-28v-360a28.031 28.031 0 0 0 -28-28zm-36-8h16v32h-16zm-96 0h16v32h-16zm-96 0h16v32h-16zm-96 0h16v32h-16zm-96 0h16v32h-16zm432 396a12.01 12.01 0 0 1 -12 12h-440a12.01 12.01 0 0 1 -12-12v-324h464zm0-340h-464v-20a12.01 12.01 0 0 1 12-12h4v16a8 8 0 0 0 8 8h32a8 8 0 0 0 8-8v-16h48v16a8 8 0 0 0 8 8h32a8 8 0 0 0 8-8v-16h48v16a8 8 0 0 0 8 8h32a8 8 0 0 0 8-8v-16h48v16a8 8 0 0 0 8 8h32a8 8 0 0 0 8-8v-16h48v16a8 8 0 0 0 8 8h32a8 8 0 0 0 8-8v-16h4a12.01 12.01 0 0 1 12 12z"/><path d="m311.78 161.576a64 64 0 0 0 -111.561 0l-102.964 183.048a64 64 0 0 0 55.781 95.376h205.928a64 64 0 0 0 55.781-95.376zm88.62 238.656a47.548 47.548 0 0 1 -41.436 23.768h-205.928a48 48 0 0 1 -41.836-71.532l102.964-183.047a48 48 0 0 1 83.671 0l102.965 183.046a47.547 47.547 0 0 1 -.4 47.765z"/><path d="m283.891 177.265a32 32 0 0 0 -55.782 0l-102.963 183.047a32 32 0 0 0 27.89 47.688h205.928a32 32 0 0 0 27.89-47.688zm88.884 206.813a15.849 15.849 0 0 1 -13.811 7.922h-205.928a16 16 0 0 1 -13.945-23.844l102.964-183.047a16 16 0 0 1 27.89 0l102.964 183.047a15.846 15.846 0 0 1 -.134 15.922z"/><path d="m272 224h-32a8 8 0 0 0 -8 8v88a8 8 0 0 0 8 8h32a8 8 0 0 0 8-8v-88a8 8 0 0 0 -8-8zm-8 88h-16v-72h16z"/><path d="m272 336h-32a8 8 0 0 0 -8 8v32a8 8 0 0 0 8 8h32a8 8 0 0 0 8-8v-32a8 8 0 0 0 -8-8zm-8 32h-16v-16h16z"/></g></g></svg>