<svg id="Layer_1" enable-background="new 0 0 512 512" height="512" viewBox="0 0 512 512" width="512" xmlns="http://www.w3.org/2000/svg"><g><g><path d="m350.967 59.21c0-9.867 7.999-17.866 17.866-17.866h117.737c9.867 0 17.866 7.999 17.866 17.866 0 9.867-7.999 17.866-17.866 17.866h-117.738c-9.866 0-17.865-7.999-17.865-17.866z" fill="#ffba47"/><g><g><path d="m438.038 504.5h-358.24c-22.768 0-41.225-18.429-41.225-41.162v-391.118h399.466v432.28z" fill="#b5ceff"/></g></g><path d="m388.038 72.22h50v432.28h-50z" fill="#a4c2ff"/><path d="m466.006 58.433c0 28.13-11.696 50.933-26.123 50.933h-376.917v-101.866h376.917c14.427 0 26.123 22.803 26.123 50.933z" fill="#e9f2ff"/><path d="m439.883 7.5h-50c14.427 0 26.123 22.803 26.123 50.933 0 28.129-11.696 50.933-26.123 50.933h50c14.427 0 26.123-22.803 26.123-50.933s-11.696-50.933-26.123-50.933z" fill="#deebff"/><ellipse cx="62.966" cy="58.433" fill="#91a8dd" rx="26.123" ry="50.933"/><g><g><g><path d="m59.055 77.076h-33.736c-9.877 0-17.884-7.997-17.884-17.863v-.006c0-9.865 8.007-17.863 17.884-17.863h33.737c5.188 11.911 5.188 23.821-.001 35.732z" fill="#ffba47"/></g></g><path d="m76.971 504.5c21.775 0 39.427-17.625 39.427-39.366h387.543c0 21.741-17.652 39.366-39.427 39.366h-388.279" fill="#e9f2ff"/><path d="m116.398 465.134h337.543c0 21.741-17.652 39.366-39.427 39.366h50c21.775 0 39.427-17.625 39.427-39.366z" fill="#deebff"/></g></g><path d="m503.941 457.634h-58.403v-341.533c11.11-3.009 20.075-14.813 24.652-31.525h16.378c13.987 0 25.366-11.379 25.366-25.366s-11.379-25.366-25.366-25.366h-15.975c-5.146-20.333-16.657-33.844-30.71-33.844h-376.917c-13.688 0-25.344 13.086-30.648 33.844h-6.999c-33.676 1.394-33.666 49.344 0 50.731h5.754v378.763c0 23.6 20.152 48.662 45.163 48.662h304.699c9.385 0 9.813-15 0-15h-269.597c6.17-6.632 10.452-15.039 11.96-24.366h372.25c-3.387 13.964-16.017 24.366-31.034 24.366h-42.621c-9.385 0-9.813 15 0 15h42.621c25.876 0 46.927-21.024 46.927-46.866 0-4.142-3.358-7.5-7.5-7.5zm-17.372-408.79c13.753.57 13.746 20.165 0 20.731h-13.631c.706-6.885.753-13.838.151-20.731zm-423.603-33.844c7.776 0 18.623 16.523 18.623 43.433s-10.847 43.433-18.623 43.433c-5.872 0-11.164-7.777-14.502-17.291h10.591c2.984 0 5.685-1.769 6.876-4.505 6.029-13.842 6.029-27.879 0-41.722-1.191-2.736-3.892-4.505-6.876-4.505h-11.144c3.916-12.295 10.208-18.843 15.055-18.843zm-48.031 44.207c0-5.714 4.658-10.363 10.384-10.363h28.534c2.128 6.942 2.128 13.79 0 20.731-9.511 0-19.022 0-28.534 0-5.726.001-10.384-4.648-10.384-10.368zm101.463 398.427c-4.142 0-7.5 3.358-7.5 7.5 0 17.098-13.563 31.089-30.514 31.83-17.942-.743-32.311-15.538-32.311-33.626v-354.039c4.971 4.867 10.741 7.567 16.893 7.567h46.969c9.385 0 9.813-15 0-15h-24.012c14.077-20.737 14.074-66.134 0-86.866h353.96c7.776 0 18.623 16.523 18.623 43.433s-10.847 43.433-18.623 43.433h-288.948c-9.385 0-9.813 15 0 15h279.604v340.768z"/></g></svg>