<svg height="512" viewBox="0 0 512 512" width="512" xmlns="http://www.w3.org/2000/svg"><g><g fill="#57a4ff"><g><path d="m351.64 368h-191.28a20 20 0 0 1 -17.89-28.94l95.64-167.28a20 20 0 0 1 35.78 0l95.64 167.28a20 20 0 0 1 -17.89 28.94z"/><path d="m16 56h480v48h-480z"/></g><path d="m351.64 368h-191.28a20 20 0 0 1 -17.89-28.94l95.64-167.28a20 20 0 0 1 35.78 0l95.64 167.28a20 20 0 0 1 -17.89 28.94z"/></g><g fill="#004fac"><path d="m496 48h-480a8 8 0 0 0 -8 8v384a8 8 0 0 0 8 8h480a8 8 0 0 0 8-8v-384a8 8 0 0 0 -8-8zm-8 384h-464v-320h464zm0-336h-464v-32h464z"/><path d="m40 88h8a8 8 0 0 0 0-16h-8a8 8 0 0 0 0 16z"/><path d="m72 88h8a8 8 0 0 0 0-16h-8a8 8 0 0 0 0 16z"/><path d="m104 88h8a8 8 0 0 0 0-16h-8a8 8 0 0 0 0 16z"/><path d="m376.473 335.085-95.538-167.1a28 28 0 0 0 -49.87 0l-95.538 167.1q-.111.194-.21.393a28 28 0 0 0 25.044 40.522h191.278a28 28 0 0 0 25.044-40.522q-.099-.199-.21-.393zm-14.626 19.224a11.771 11.771 0 0 1 -10.208 5.691h-191.278a12 12 0 0 1 -10.82-17.19l95.515-167.062q.111-.193.211-.394a12 12 0 0 1 21.466 0q.1.2.211.394l95.515 167.062a11.762 11.762 0 0 1 -.612 11.499z"/><path d="m256 232a8 8 0 0 0 -8 8v48a8 8 0 0 0 16 0v-48a8 8 0 0 0 -8-8z"/><path d="m256 312a8 8 0 0 0 -8 8v8a8 8 0 0 0 16 0v-8a8 8 0 0 0 -8-8z"/></g></g></svg>